# xmcd CD database file
#
# Track frame offsets:
#	150
#	21078
#	38115
#	58375
#	79555
#	90538
#	104980
#	126808
#	151533
#	182325
#	196240
#
# Disc length: 2833 seconds
#
# Revision: 0
# Processed by: cddbd v1.4PL0 Copyright (c) Steve Scherf et al.
# Submitted via: CDex 1.50
#
DISCID=840b0f0b
DTITLE=Ciro Hurtado - In My Mind
DYEAR=1989
DGENRE=New Age
TTITLE0=Aguas (Waters)
TTITLE1=Tango De Echo Park
TTITLE2=Ayahuasca
TTITLE3=Costa Verde
TTITLE4=Peaceful Forest
TTITLE5=Spanish Heart 
TTITLE6=En Mi Mente (In My Mind
TTITLE7=Marinera III
TTITLE8=Hope
TTITLE9=The Woman Who Came At 4 O'Clock
TTITLE10=Charapa
EXTD=YEAR: 1989
EXTT0=
EXTT1=
EXTT2=
EXTT3=
EXTT4=
EXTT5=
EXTT6=
EXTT7=
EXTT8=
EXTT9=
EXTT10=
PLAYORDER=
